<?xml version="1.0" encoding="utf-8"?>
<!-- Generator: Adobe Illustrator 16.0.0, SVG Export Plug-In . SVG Version: 6.00 Build 0)  -->
<!DOCTYPE svg PUBLIC "-//W3C//DTD SVG 1.1//EN" "http://www.w3.org/Graphics/SVG/1.1/DTD/svg11.dtd">
<svg version="1.1" id="Layer_1" xmlns="http://www.w3.org/2000/svg" xmlns:xlink="http://www.w3.org/1999/xlink" x="0px" y="0px"
	 width="60px" height="60px" viewBox="0 0 60 60" enable-background="new 0 0 60 60" xml:space="preserve">
<g>
	<g>
		<path fill-rule="evenodd" clip-rule="evenodd" fill="#8B979F" d="M45.874,26.481h-4.438v-5.218h-0.019
			c-0.388-5.98-5.347-10.73-11.441-10.73c-6.127,0-11.12,4.793-11.467,10.834h-0.008v5.114h-4.376h-1.77v1.837V47.63v1.837h1.77
			h31.748h1.77V47.63V28.318v-1.837H45.874z M20.382,21.367L20.382,21.367c0.288-5.053,4.474-9.075,9.595-9.075
			c5.105,0,9.251,3.961,9.588,8.971h-0.019v5.218H20.382V21.367z M45.874,47.63H14.126V28.318h31.748V47.63z"/>
	</g>
	<g>
		<rect x="29.119" y="34.62" fill-rule="evenodd" clip-rule="evenodd" fill="#8B979F" width="1.77" height="6.674"/>
	</g>
</g>
</svg>
